<?xml version="1.0" encoding="UTF-8" standalone="no"?>
<svg
   xmlns:dc="http://purl.org/dc/elements/1.1/"
   xmlns:cc="http://creativecommons.org/ns#"
   xmlns:rdf="http://www.w3.org/1999/02/22-rdf-syntax-ns#"
   xmlns:svg="http://www.w3.org/2000/svg"
   xmlns="http://www.w3.org/2000/svg"
   id="svg8"
   version="1.1"
   viewBox="0 0 6.6145835 6.8346767"
   height="6.8346767mm"
   width="6.6145835mm">
  <defs
     id="defs2" />
  <metadata
     id="metadata5">
    <rdf:RDF>
      <cc:Work
         rdf:about="">
        <dc:format>image/svg+xml</dc:format>
        <dc:type
           rdf:resource="http://purl.org/dc/dcmitype/StillImage" />
        <dc:title></dc:title>
      </cc:Work>
    </rdf:RDF>
  </metadata>
  <g
     transform="translate(-63.8597,-109.01855)"
     id="layer1">
    <flowRoot
       transform="scale(0.26458333)"
       style="font-style:normal;font-weight:normal;font-size:40px;line-height:1.20000005;font-family:sans-serif;letter-spacing:0px;word-spacing:0px;fill:#000000;fill-opacity:1;stroke:none"
       id="flowRoot821"
       xml:space="preserve"><flowRegion
         id="flowRegion823"><rect
           y="423.49411"
           x="244.96199"
           height="55.053314"
           width="46.467018"
           id="rect825" /></flowRegion><flowPara
         id="flowPara827"></flowPara></flowRoot>    <g
       id="g886">
      <g
         aria-label="APL"
         style="font-style:normal;font-weight:normal;font-size:4.05251026px;line-height:1.20000005;font-family:sans-serif;letter-spacing:0px;word-spacing:0px;fill:#000000;fill-opacity:1;stroke:none;stroke-width:0.26458332"
         id="text817">
        <path
           d="m 65.686979,115.60603 q -0.445776,-1.62911 -0.709189,-2.38693 -0.06079,-0.18237 -0.149943,-0.18237 -0.08916,0 -0.153996,0.18237 l -0.778082,2.4234 q -0.05674,0.17831 0.170206,0.17426 0.158048,0.008 0.202625,-0.20263 l 0.194521,-0.59572 h 0.680822 l 0.202625,0.65651 q 0.04863,0.13778 0.198573,0.13778 0.210731,0 0.141838,-0.20667 z m -0.632192,-0.94019 h -0.470091 l 0.243151,-0.85508 z"
           style="font-style:normal;font-variant:normal;font-weight:normal;font-stretch:normal;line-height:0;font-family:'APL385 Unicode';-inkscape-font-specification:'APL385 Unicode';text-align:center;text-anchor:middle;stroke-width:0.26458332"
           id="path871" />
        <path
           d="m 68.076377,114.00934 q 0,-0.19452 -0.05268,-0.36473 -0.05268,-0.17426 -0.182363,-0.30394 -0.12968,-0.12968 -0.303938,-0.19452 -0.170205,-0.0689 -0.364726,-0.0689 h -0.543036 q -0.125628,0 -0.182363,0.0365 -0.06484,0.0446 -0.06484,0.19452 v 2.37477 q 0,0.073 0.05268,0.12158 0.05268,0.0486 0.125628,0.0486 0.174258,0 0.174258,-0.17021 v -0.84292 q 0.121575,0.0284 0.259361,0.0162 0.137785,-0.0122 0.25936,-0.0162 0.170206,-0.004 0.263414,0 0.09726,0 0.1621,-0.0324 0.21073,-0.10131 0.320148,-0.34851 0.09726,-0.21074 0.09726,-0.47415 z m -0.352568,0 q 0,0.18641 -0.08105,0.31609 -0.04863,0.077 -0.12968,0.12158 -0.08105,0.0405 -0.170205,0.0405 h -0.607877 v -0.8956 q 0,-0.0689 0.04053,-0.11347 0.04053,-0.0486 0.109418,-0.0486 0.425514,0 0.595719,0.0811 0.243151,0.11752 0.243151,0.50251 z"
           style="font-style:normal;font-variant:normal;font-weight:normal;font-stretch:normal;line-height:0;font-family:'APL385 Unicode';-inkscape-font-specification:'APL385 Unicode';text-align:center;text-anchor:middle;stroke-width:0.26458332"
           id="path873" />
        <path
           d="m 69.245969,113.2272 q 0,-0.1702 -0.170205,-0.16615 -0.06484,0 -0.125628,0.0446 -0.05674,0.0446 -0.05674,0.12157 v 2.19646 q 0,0.11753 0.01216,0.20668 0.01621,0.14994 0.149943,0.1621 0.02026,0.004 0.06484,0.004 0.04863,0 0.125627,0 h 0.976655 q 0.109418,0 0.170206,-0.0486 0.05674,-0.0567 0.05674,-0.12157 0,-0.0648 -0.05268,-0.11752 -0.06079,-0.0648 -0.174258,-0.0648 h -0.976655 z"
           style="font-style:normal;font-variant:normal;font-weight:normal;font-stretch:normal;line-height:0;font-family:'APL385 Unicode';-inkscape-font-specification:'APL385 Unicode';text-align:center;text-anchor:middle;stroke-width:0.26458332"
           id="path875" />
      </g>
      <g
         aria-label="Try"
         style="font-style:normal;font-weight:normal;font-size:4.05251026px;line-height:1.20000005;font-family:sans-serif;letter-spacing:0px;word-spacing:0px;fill:#000000;fill-opacity:1;stroke:none;stroke-width:0.26458332"
         id="text817-3">
        <path
           d="m 65.760329,109.20091 q 0,-0.0729 -0.04863,-0.12563 -0.04458,-0.0567 -0.117522,-0.0567 h -1.592637 q -0.06079,0 -0.101313,0.0608 -0.04053,0.0608 -0.04053,0.12158 0,0.1702 0.141838,0.1702 h 0.636244 v 2.29778 q 0,0.0527 0.03647,0.0689 0.03647,0.0162 0.125628,0.0162 0.08915,0 0.137785,-0.0162 0.05268,-0.0162 0.05268,-0.0689 l -0.0081,-2.29778 h 0.611929 q 0.166153,0 0.166153,-0.1702 z"
           style="font-style:normal;font-variant:normal;font-weight:normal;font-stretch:normal;line-height:0;font-family:'APL385 Unicode';-inkscape-font-specification:'APL385 Unicode';text-align:center;text-anchor:middle;stroke-width:0.26458332"
           id="path864" />
        <path
           d="m 68.121359,110.09246 q 0,-0.15805 -0.194521,-0.2391 -0.141837,-0.0608 -0.328253,-0.0608 -0.380936,0 -0.701084,0.24315 -0.0041,-0.0729 -0.0081,-0.12157 -0.0041,-0.0527 -0.01216,-0.0811 -0.04053,-0.10131 -0.153995,-0.10131 -0.182363,0 -0.178311,0.25125 v 1.66153 q 0,0.12563 0.178311,0.12563 0.170205,0 0.170205,-0.12563 v -1.1266 q 0.312044,-0.36067 0.7254,-0.36067 0.137785,0 0.417408,0.10131 0.0851,-0.0162 0.0851,-0.16615 z"
           style="font-style:normal;font-variant:normal;font-weight:normal;font-stretch:normal;line-height:0;font-family:'APL385 Unicode';-inkscape-font-specification:'APL385 Unicode';text-align:center;text-anchor:middle;stroke-width:0.26458332"
           id="path866" />
        <path
           d="m 70.474284,109.89389 q 0,-0.10132 -0.218835,-0.10132 -0.149943,0 -0.190468,0.10942 l -0.376884,1.0496 -0.393093,-1.0577 q -0.04458,-0.10942 -0.255308,-0.10942 -0.170206,0 -0.170206,0.0689 0,0.0648 0.595719,1.58453 -0.307991,0.76188 -0.307991,0.81051 0,0.0365 0.02026,0.0689 0.02026,0.0324 0.077,0.0608 0.05674,0.0324 0.09321,0.0446 0.03647,0.0122 0.06889,0.008 0.08105,-0.0122 0.166153,-0.20668 0.0851,-0.19452 0.11347,-0.27557 0.03242,-0.077 0.06484,-0.17021 l 0.498459,-1.3049 q 0.214783,-0.55925 0.214783,-0.57951 z"
           style="font-style:normal;font-variant:normal;font-weight:normal;font-stretch:normal;line-height:0;font-family:'APL385 Unicode';-inkscape-font-specification:'APL385 Unicode';text-align:center;text-anchor:middle;stroke-width:0.26458332"
           id="path868" />
      </g>
    </g>
  </g>
</svg>
